<svg xmlns="http://www.w3.org/2000/svg" width="18" height="18" viewBox="0 0 18 18"><defs><style>.a{fill:none;}.b{fill:#00cbff;}</style></defs><g transform="translate(-1137 -386)"><rect class="a" width="18" height="18" transform="translate(1137 386)"/><path class="b" d="M17.714,19H16V17.286a2.571,2.571,0,0,0-2.571-2.571H8.286a2.571,2.571,0,0,0-2.571,2.571V19H4V17.286A4.286,4.286,0,0,1,8.286,13h5.143a4.286,4.286,0,0,1,4.286,4.286Zm-6.857-7.714A5.143,5.143,0,1,1,16,6.143,5.143,5.143,0,0,1,10.857,11.286Zm0-1.714A3.429,3.429,0,1,0,7.429,6.143,3.429,3.429,0,0,0,10.857,9.571Z" transform="translate(1135.143 385)"/></g></svg>